<svg width="17" height="16" viewBox="0 0 17 16" fill="none" xmlns="http://www.w3.org/2000/svg">
<path d="M12.1992 1.23242C14.3955 1.23242 16.1825 3.02124 16.1826 5.24023C16.1826 7.94068 14.9359 10.1056 13.3652 11.7148C11.7868 13.332 9.92064 14.345 8.80566 14.7256L8.7998 14.7275C8.74934 14.7453 8.64005 14.7656 8.49902 14.7656C8.35835 14.7656 8.24974 14.7453 8.19922 14.7275L8.19238 14.7256L7.97461 14.6465C6.84506 14.2156 5.11249 13.2309 3.63281 11.7148C2.06217 10.1056 0.816406 7.94066 0.816406 5.24023C0.816476 3.02124 2.60353 1.23242 4.7998 1.23242C6.10081 1.23257 7.25266 1.85998 7.97754 2.83594C8.1001 3.00097 8.29347 3.09853 8.49902 3.09863C8.7047 3.09863 8.89886 3.00106 9.02148 2.83594C9.74603 1.86052 10.9058 1.23246 12.1992 1.23242Z" stroke="#6C6C6C" stroke-width="1.3" stroke-linecap="round" stroke-linejoin="round"/>
</svg>
